<?xml version="1.0" encoding="utf-8"?>
<!-- Generator: Adobe Illustrator 17.1.0, SVG Export Plug-In . SVG Version: 6.00 Build 0)  -->
<!DOCTYPE svg PUBLIC "-//W3C//DTD SVG 1.1//EN" "http://www.w3.org/Graphics/SVG/1.1/DTD/svg11.dtd">
<svg version="1.1" id="Layer_1" xmlns="http://www.w3.org/2000/svg" xmlns:xlink="http://www.w3.org/1999/xlink" x="0px" y="0px"
	 viewBox="0 0 612 792" enable-background="new 0 0 612 792" xml:space="preserve">
<path fill="#3A5A9B" d="M612,637.2c0,32.6-26.4,59.1-59.1,59.1H59.1C26.4,696.3,0,669.8,0,637.2V152.3c0-32.6,26.4-59.1,59.1-59.1
	h493.9c32.6,0,59.1,26.4,59.1,59.1V637.2z"/>
<path fill="#FFFFFF" stroke="#FFFFFF" stroke-miterlimit="10" d="M520.1,173.7v91.9h-72.2c0,0-24.6,4.9-27.9,27.9v74.7h93.5
	l-7.4,93.5h-82.9L420,696.3h-93.5V460.8h-82v-93.5h81.2V263.9c0,0-10.7-79.6,92.7-90.2L520.1,173.7L520.1,173.7z"/>
</svg>
