<?xml version="1.0" encoding="utf-8"?>
<!-- Generator: Adobe Illustrator 17.1.0, SVG Export Plug-In . SVG Version: 6.00 Build 0)  -->
<!DOCTYPE svg PUBLIC "-//W3C//DTD SVG 1.1//EN" "http://www.w3.org/Graphics/SVG/1.1/DTD/svg11.dtd">
<svg version="1.1" id="Layer_1" xmlns="http://www.w3.org/2000/svg" xmlns:xlink="http://www.w3.org/1999/xlink" x="0px" y="0px"
	 viewBox="0 0 124.333 123" enable-background="new 0 0 124.333 123" xml:space="preserve">
<path fill="#3A5A9B" d="M124.333,110.5c0,6.627-5.373,12-12,12H12c-6.627,0-12-5.373-12-12V12C0,5.373,5.373,0,12,0h100.333
	c6.627,0,12,5.373,12,12V110.5z"/>
<path fill="#FFFFFF" stroke="#FFFFFF" stroke-miterlimit="10" d="M105.667,16.333V35H91c0,0-5,1-5.667,5.667v15.167h19l-1.5,19H86
	L85.333,122.5h-19V74.667H49.667v-19h16.5v-21c0,0-2.167-16.167,18.833-18.333H105.667z"/>
</svg>
