<?xml version="1.0" encoding="utf-8"?>
<!-- Generator: Adobe Illustrator 17.1.0, SVG Export Plug-In . SVG Version: 6.00 Build 0)  -->
<!DOCTYPE svg PUBLIC "-//W3C//DTD SVG 1.1//EN" "http://www.w3.org/Graphics/SVG/1.1/DTD/svg11.dtd">
<svg version="1.1" id="Layer_1" xmlns="http://www.w3.org/2000/svg" xmlns:xlink="http://www.w3.org/1999/xlink" x="0px" y="0px"
	 viewBox="0 0 612 792" enable-background="new 0 0 612 792" xml:space="preserve">
<path fill="#628AAA" d="M517,180.3c0,0,29.3,5.6,75.5-25.2c0,0-6.3,47-44.5,63.5c-1.9,0.8-3.8,1.5-5.8,2.2
	c-43.3,14,53.1,0,69.9-18.2c0,0-34.9,54.5-65,65c0,0,25.8,285.7-278.8,371c0,0-120.2,32.1-268.3-48.9c0,0,89.4,23.8,183-50.3
	c0,0-92.2-1.4-120.2-86.6c0,0,41.9,0,57.3,0c0,0-97.8-32.1-102-128.5c0,0,21,15.4,58.7,14c0,0-92.2-67.1-39.1-171.9
	c0,0,131.3,166.3,265.5,132.7C303.2,299.1,282.2,61.6,517,180.3z"/>
</svg>
