<?xml version="1.0" encoding="utf-8"?>
<!-- Generator: Adobe Illustrator 17.1.0, SVG Export Plug-In . SVG Version: 6.00 Build 0)  -->
<!DOCTYPE svg PUBLIC "-//W3C//DTD SVG 1.1//EN" "http://www.w3.org/Graphics/SVG/1.1/DTD/svg11.dtd">
<svg version="1.1" id="Layer_1" xmlns="http://www.w3.org/2000/svg" xmlns:xlink="http://www.w3.org/1999/xlink" x="0px" y="0px"
	 viewBox="0 0 109.5 89.075" enable-background="new 0 0 109.5 89.075" xml:space="preserve">
<path fill="#628AAA" d="M92.5,5.95c0,0,5.25,1,13.5-4.5c0,0-1.136,8.405-7.954,11.356C97.711,12.951,97.363,13.083,97,13.2
	c-7.75,2.5,9.5,0,12.5-3.25c0,0-6.25,9.75-11.625,11.625c0,0,4.625,51.125-49.875,66.375c0,0-21.5,5.75-48-8.75c0,0,16,4.25,32.75-9
	c0,0-16.5-0.25-21.5-15.5c0,0,7.5,0,10.25,0c0,0-17.5-5.75-18.25-23c0,0,3.75,2.75,10.5,2.5c0,0-16.5-12-7-30.75
	c0,0,23.5,29.75,47.5,23.75C54.25,27.2,50.5-15.3,92.5,5.95z"/>
</svg>
